<?xml version="1.0" encoding="utf-8"?>
<!-- Generator: Adobe Illustrator 27.2.0, SVG Export Plug-In . SVG Version: 6.00 Build 0)  -->
<svg version="1.1" id="Layer_1" xmlns="http://www.w3.org/2000/svg" xmlns:xlink="http://www.w3.org/1999/xlink" x="0px" y="0px"
	 viewBox="0 0 512 512" style="enable-background:new 0 0 512 512;" xml:space="preserve">
<style type="text/css">
	.st0{fill:#212121;}
</style>
<g>
	<path class="st0" d="M256,398.22c31.42,0,56.89,25.47,56.89,56.89c0,31.42-25.47,56.89-56.89,56.89
		c-31.42,0-56.89-25.47-56.89-56.89C199.11,423.69,224.58,398.22,256,398.22z M455.11,398.22c31.42,0,56.89,25.47,56.89,56.89
		c0,31.42-25.47,56.89-56.89,56.89c-31.42,0-56.89-25.47-56.89-56.89C398.22,423.69,423.69,398.22,455.11,398.22z M56.89,398.22
		c31.42,0,56.89,25.47,56.89,56.89c0,31.42-25.47,56.89-56.89,56.89C25.47,512,0,486.53,0,455.11
		C0,423.69,25.47,398.22,56.89,398.22z M256,199.11c31.42,0,56.89,25.47,56.89,56.89c0,31.42-25.47,56.89-56.89,56.89
		c-31.42,0-56.89-25.47-56.89-56.89C199.11,224.58,224.58,199.11,256,199.11z M455.11,199.11c31.42,0,56.89,25.47,56.89,56.89
		c0,31.42-25.47,56.89-56.89,56.89c-31.42,0-56.89-25.47-56.89-56.89C398.22,224.58,423.69,199.11,455.11,199.11z M56.89,199.11
		c31.42,0,56.89,25.47,56.89,56.89c0,31.42-25.47,56.89-56.89,56.89C25.47,312.89,0,287.42,0,256
		C0,224.58,25.47,199.11,56.89,199.11z M256,0c31.42,0,56.89,25.47,56.89,56.89c0,31.42-25.47,56.89-56.89,56.89
		c-31.42,0-56.89-25.47-56.89-56.89C199.11,25.47,224.58,0,256,0z M455.11,0C486.53,0,512,25.47,512,56.89
		c0,31.42-25.47,56.89-56.89,56.89c-31.42,0-56.89-25.47-56.89-56.89C398.22,25.47,423.69,0,455.11,0z M56.89,0
		c31.42,0,56.89,25.47,56.89,56.89c0,31.42-25.47,56.89-56.89,56.89C25.47,113.78,0,88.31,0,56.89C0,25.47,25.47,0,56.89,0z"/>
</g>
</svg>
