<?xml version="1.0" encoding="utf-8"?>
<!-- Generator: Adobe Illustrator 27.5.0, SVG Export Plug-In . SVG Version: 6.00 Build 0)  -->
<svg version="1.1" id="Layer_1" xmlns="http://www.w3.org/2000/svg" xmlns:xlink="http://www.w3.org/1999/xlink" x="0px" y="0px"
	 viewBox="0 0 512 512" style="enable-background:new 0 0 512 512;" xml:space="preserve">
<g>
	<path fill="#6666FF" d="M363.08,18.77l-48.45,48.45l130.13,130.13l48.45-48.45c25.03-25.03,25.03-65.57,0-90.59l-39.44-39.54
		c-25.03-25.03-65.57-25.03-90.59,0H363.08z M292.01,89.84L58.67,323.28c-10.41,10.41-18.02,23.32-22.22,37.44L1.01,481.14
		c-2.5,8.51-0.2,17.62,6.01,23.82c6.21,6.21,15.32,8.51,23.72,6.11l120.42-35.44c14.11-4.2,27.03-11.81,37.44-22.22l233.54-233.44
		L292.01,89.84z"/>
</g>
</svg>
