<?xml version="1.0" encoding="utf-8"?>
<!-- Generator: Adobe Illustrator 21.0.0, SVG Export Plug-In . SVG Version: 6.00 Build 0)  -->
<svg version="1.1" id="Layer_1" xmlns="http://www.w3.org/2000/svg" xmlns:xlink="http://www.w3.org/1999/xlink" x="0px" y="0px"
	 viewBox="0 0 512 512" style="enable-background:new 0 0 512 512;" xml:space="preserve">
<g>
	<path fill="#6666FF" d="M425.1,0c-22,0-44.1,8.6-61.2,25.7l-333,333l-1.3,6.6l-23,115.8L0,512l30.9-6.6l115.8-23l6.6-1.3l333-333
		c34.2-34.2,34.2-88.2,0-122.4C469.2,8.6,447.2,0,425.1,0z M425.1,40.1c10.6,0,21.3,4.9,31.6,15.1c20.5,20.5,20.5,42.7,0,63.2
		l-15.1,14.5l-62.5-62.5l14.5-15.1C403.8,45,414.5,40.1,425.1,40.1z M349.4,100l62.5,62.5L157.3,417.2c-13.8-27-35.5-48.7-62.5-62.5
		L349.4,100z M67.8,388.9c25.3,10.2,45.1,30,55.3,55.3L54,458L67.8,388.9z"/>
</g>
</svg>
