<?xml version="1.0" encoding="utf-8"?>
<!-- Generator: Adobe Illustrator 24.1.1, SVG Export Plug-In . SVG Version: 6.00 Build 0)  -->
<svg version="1.1" id="Layer_1" xmlns="http://www.w3.org/2000/svg" xmlns:xlink="http://www.w3.org/1999/xlink" x="0px" y="0px"
	 viewBox="0 0 512 512" style="enable-background:new 0 0 512 512;" xml:space="preserve">
<style type="text/css">
	.st0{fill:#555555;}
</style>
<g>
	<path class="st0" d="M209.8,0c115.9,0,209.8,92.7,209.8,207c0,51.5-19.1,98.6-50.6,134.8l137.9,140.1c6.9,7,6.7,18.3-0.4,25.1
		c-7.1,6.8-18.5,6.6-25.4-0.4l-137.8-140c-36.3,29.6-82.8,47.3-133.5,47.3C93.9,413.9,0,321.3,0,207S93.9,0,209.8,0z M209.8,35.5
		C113.8,35.5,36,112.3,36,207c0,94.7,77.8,171.5,173.8,171.5c96,0,173.8-76.8,173.8-171.5C383.6,112.3,305.8,35.5,209.8,35.5z"/>
</g>
</svg>
