<?xml version="1.0" encoding="utf-8"?>
<!-- Generator: Adobe Illustrator 24.1.1, SVG Export Plug-In . SVG Version: 6.00 Build 0)  -->
<svg version="1.1" id="Layer_1" xmlns="http://www.w3.org/2000/svg" xmlns:xlink="http://www.w3.org/1999/xlink" x="0px" y="0px"
	 viewBox="0 0 512 512" style="enable-background:new 0 0 512 512;" xml:space="preserve">
<style type="text/css">
	.st0{fill:#EA4335;}
	.st1{fill:#34A853;}
	.st2{fill:#4A90E2;}
	.st3{fill:#FBBC05;}
</style>
<g>
	<path class="st0" d="M118.2,208.3c19.9-60.3,76.5-103.6,143.7-103.6c36.1,0,68.6,12.8,94.3,33.7L430.5,64C385.2,24.4,327,0,261.8,0
		C160.9,0,74,57.6,32.3,141.9L118.2,208.3z"/>
	<path class="st1" d="M348,384.3c-23.3,15-52.8,23-86.2,23c-66.9,0-123.3-43-143.4-102.9l-86.2,65.4C73.9,454.3,160.8,512,261.8,512
		c62.6,0,122.4-22.2,167.1-64L348,384.3z"/>
	<path class="st2" d="M428.9,448c46.8-43.7,77.2-108.7,77.2-192c0-15.1-2.3-31.4-5.8-46.5H261.8v98.9h137.3
		c-6.8,33.3-25,59-51.1,75.9L428.9,448z"/>
	<path class="st3" d="M118.4,304.4c-5.1-15.2-7.9-31.4-7.9-48.4c0-16.7,2.7-32.7,7.6-47.7l-85.9-66.4C15.1,176.2,5.8,214.9,5.8,256
		c0,40.9,9.5,79.6,26.4,113.8L118.4,304.4z"/>
</g>
</svg>
